<svg width="64" height="64" viewBox="0 0 64 64" fill="none" xmlns="http://www.w3.org/2000/svg">
  <defs>
    <linearGradient id="pcbGradient" x1="0%" y1="0%" x2="100%" y2="100%">
      <stop offset="0%" style="stop-color:#1c163a;" />
      <stop offset="100%" style="stop-color:#2a234f;" />
    </linearGradient>
    <linearGradient id="chipBodyGradient" x1="0%" y1="0%" x2="0%" y2="100%">
      <stop offset="0%" style="stop-color:#38384d;" /> 
      <stop offset="100%" style="stop-color:#282838;" />
    </linearGradient>
    <filter id="mGlow" x="-50%" y="-50%" width="200%" height="200%">
      <feGaussianBlur stdDeviation="2" result="coloredBlur"/> 
      <feMerge>
        <feMergeNode in="coloredBlur"/>
        <feMergeNode in="SourceGraphic"/>
      </feMerge>
    </filter>
     <filter id="flawGlow" x="-30%" y="-30%" width="160%" height="160%">
      <feGaussianBlur stdDeviation="0.8" result="coloredBlur"/>
      <feMerge>
        <feMergeNode in="coloredBlur"/>
        <feMergeNode in="SourceGraphic"/>
      </feMerge>
    </filter>
  </defs>

  <!-- PCB Base -->
  <rect x="6" y="6" width="52" height="52" rx="6" fill="url(#pcbGradient)" stroke="#3d366b" stroke-width="1.5"/>
  <rect x="6" y="12" width="4" height="8" fill="#0a081b"/>
  <rect x="54" y="44" width="4" height="8" fill="#0a081b"/>

  <!-- Traces on PCB (Cyan, slightly more subtle) -->
  <g opacity="0.5">
    <rect x="16" y="6" width="3" height="10" fill="#00c6ff"/> <rect x="23" y="6" width="3" height="10" fill="#00c6ff"/>
    <rect x="30" y="6" width="3" height="10" fill="#00c6ff"/> <rect x="37" y="6" width="3" height="10" fill="#00c6ff"/>
    <rect x="44" y="6" width="3" height="10" fill="#00c6ff"/>
    <rect x="16" y="48" width="3" height="10" fill="#00c6ff"/> <rect x="23" y="48" width="3" height="10" fill="#00c6ff"/>
    <rect x="30" y="48" width="3" height="10" fill="#00c6ff"/> <rect x="37" y="48" width="3" height="10" fill="#00c6ff"/>
    <rect x="44" y="48" width="3" height="10" fill="#00c6ff"/>
    <rect x="6" y="18" width="10" height="3" fill="#00c6ff"/> <rect x="6" y="25" width="10" height="3" fill="#00c6ff"/>
    <rect x="6" y="32" width="10" height="3" fill="#00c6ff"/> <rect x="6" y="39" width="10" height="3" fill="#00c6ff"/>
    <rect x="48" y="18" width="10" height="3" fill="#00c6ff"/> <rect x="48" y="25" width="10" height="3" fill="#00c6ff"/>
    <rect x="48" y="32" width="10" height="3" fill="#00c6ff"/> <rect x="48" y="39" width="10" height="3" fill="#00c6ff"/>
  </g>

  <!-- Main Chip Body -->
  <rect x="17" y="17" width="30" height="30" rx="3" fill="black" opacity="0.4" transform="translate(1.5 1.5)"/>
  <rect x="16" y="16" width="30" height="30" rx="3" fill="url(#chipBodyGradient)" stroke="#1c163a" stroke-width="1.5"/>

  <!-- Large "M" in the Center of the Chip (Glowing Cyan) -->
  <!-- Comments explaining attributes should be outside the tag or after it -->
  <text x="31" y="43" 
        font-family="Orbitron, Impact, sans-serif" 
        font-size="30" 
        font-weight="900" 
        fill="#00c6ff" 
        text-anchor="middle" 
        letter-spacing="-1" 
        filter="url(#mGlow)">
    M
  </text>
  

</svg>